<?xml version="1.0" standalone="no"?><!DOCTYPE svg PUBLIC "-//W3C//DTD SVG 1.1//EN" "http://www.w3.org/Graphics/SVG/1.1/DTD/svg11.dtd"><svg t="1687168466162" class="icon" viewBox="0 0 1024 1024" version="1.1" xmlns="http://www.w3.org/2000/svg" p-id="2250" xmlns:xlink="http://www.w3.org/1999/xlink" width="200" height="200"><path d="M621.933714 749.714286H365.421714A127.780571 127.780571 0 0 1 237.714286 621.933714V365.421714c0-70.509714 57.197714-127.707429 127.707428-127.707428h256.512c70.509714 0 127.780571 57.197714 127.780572 127.707428v256.512c0 70.582857-57.270857 127.780571-127.780572 127.780572z m0-73.142857a54.637714 54.637714 0 0 0 54.637715-54.637715V365.421714a54.564571 54.564571 0 0 0-54.637715-54.564571H365.421714a54.564571 54.564571 0 0 0-54.564571 54.564571v256.512c0 30.208 24.429714 54.637714 54.564571 54.637715h256.512zM73.142857 283.062857V109.714286a36.571429 36.571429 0 0 1 36.571429-36.571429h167.789714a36.571429 36.571429 0 0 0 0-73.142857H109.714286A109.714286 109.714286 0 0 0 0 109.714286v173.348571a36.571429 36.571429 0 0 0 73.142857 0zM281.014857 914.285714H109.714286A36.571429 36.571429 0 0 1 73.142857 877.714286V710.217143a36.571429 36.571429 0 0 0-73.142857 0V877.714286a109.714286 109.714286 0 0 0 109.714286 109.714285h171.300571a36.571429 36.571429 0 1 0 0-73.142857zM914.285714 699.684571V877.714286a36.571429 36.571429 0 0 1-36.571428 36.571428H701.220571a36.571429 36.571429 0 1 0 0 73.142857H877.714286a109.714286 109.714286 0 0 0 109.714285-109.714285V699.684571a36.571429 36.571429 0 1 0-73.142857 0zM701.220571 73.142857H877.714286a36.571429 36.571429 0 0 1 36.571428 36.571429v169.837714a36.571429 36.571429 0 1 0 73.142857 0V109.714286A109.714286 109.714286 0 0 0 877.714286 0H701.220571a36.571429 36.571429 0 0 0 0 73.142857z" fill="#586C81" p-id="2251"></path></svg>