<?xml version="1.0" standalone="no"?><!DOCTYPE svg PUBLIC "-//W3C//DTD SVG 1.1//EN" "http://www.w3.org/Graphics/SVG/1.1/DTD/svg11.dtd"><svg t="1687769767242" class="icon" viewBox="0 0 1024 1024" version="1.1" xmlns="http://www.w3.org/2000/svg" p-id="2402" xmlns:xlink="http://www.w3.org/1999/xlink" width="200" height="200"><path d="M512 737.28s327.68-235.52 327.68-430.08c0-158.72-133.12-302.08-327.68-302.08S184.32 148.48 184.32 307.2c0 199.68 327.68 430.08 327.68 430.08z m0-629.76c148.48 0 225.28 102.4 225.28 199.68 0 81.92-112.64 225.28-225.28 307.2-112.64-81.92-225.28-225.28-225.28-307.2 0-97.28 76.8-199.68 225.28-199.68z" fill="#2c2c2c" p-id="2403"></path><path d="M962.56 773.12l-20.48-20.48H112.64c-10.24-15.36-10.24-35.84 0-51.2H307.2v-102.4H66.56l-10.24 15.36c-66.56 66.56-66.56 158.72 0 225.28l15.36 15.36h829.44c15.36 20.48 20.48 35.84 15.36 56.32h-614.4v102.4H972.8l15.36-20.48c51.2-71.68 40.96-153.6-25.6-220.16zM512 481.28c87.04 0 153.6-66.56 153.6-153.6s-66.56-153.6-153.6-153.6-153.6 66.56-153.6 153.6 71.68 153.6 153.6 153.6z m0-204.8c30.72 0 51.2 20.48 51.2 51.2s-20.48 51.2-51.2 51.2-51.2-20.48-51.2-51.2 25.6-51.2 51.2-51.2z" fill="#2c2c2c" p-id="2404"></path></svg>