<?xml version="1.0" standalone="no"?><!DOCTYPE svg PUBLIC "-//W3C//DTD SVG 1.1//EN" "http://www.w3.org/Graphics/SVG/1.1/DTD/svg11.dtd"><svg t="1687168540919" class="icon" viewBox="0 0 1024 1024" version="1.1" xmlns="http://www.w3.org/2000/svg" p-id="3230" xmlns:xlink="http://www.w3.org/1999/xlink" width="200" height="200"><path d="M879.340017 0H144.509452A144.509452 144.509452 0 0 0 0 144.509452v734.981096a144.509452 144.509452 0 0 0 144.509452 144.509452h734.981096a144.509452 144.509452 0 0 0 144.509452-144.509452V144.509452a144.509452 144.509452 0 0 0-144.509452-144.509452z m65.631376 879.340017a65.691589 65.691589 0 0 1-65.631376 65.631376H144.509452a65.691589 65.691589 0 0 1-65.631376-65.631376V144.509452A65.691589 65.691589 0 0 1 144.509452 78.878076h734.981096a65.691589 65.691589 0 0 1 65.631376 65.631376v734.981096z" fill="#63ABFF" p-id="3231"></path><path d="M590.622174 839.931085a39.378826 39.378826 0 0 0 39.378826-39.378826V685.516714l129.637021 129.637021a39.378826 39.378826 0 1 0 55.666245-55.666245l-129.757446-129.546703h114.945227a39.378826 39.378826 0 1 0 0-78.727545h-209.990298a39.589569 39.589569 0 0 0-14.360626 2.769764l-0.602123 0.180637a39.469144 39.469144 0 0 0-21.405463 21.405463l-0.180637 0.602123a39.318613 39.318613 0 0 0-2.79987 14.390733v209.960191a39.378826 39.378826 0 0 0 39.378825 39.378826z" fill="#63ABFF" p-id="3232"></path><path d="M223.146679 472.485697h209.990298a39.137977 39.137977 0 0 0 14.360627-2.799871l0.602123-0.180637a39.49925 39.49925 0 0 0 21.435568-21.435569l0.180637-0.602122a39.137977 39.137977 0 0 0 2.769765-14.330521V223.116573a39.378826 39.378826 0 1 0-78.757652 0v114.945227L264.060918 208.394673a39.378826 39.378826 0 1 0-55.696352 55.666245l129.667128 129.697233H223.086467a39.378826 39.378826 0 0 0 0 78.757652z" fill="#63ABFF" p-id="3233"></path></svg>