<?xml version="1.0" standalone="no"?><!DOCTYPE svg PUBLIC "-//W3C//DTD SVG 1.1//EN" "http://www.w3.org/Graphics/SVG/1.1/DTD/svg11.dtd"><svg t="1686990640810" class="icon" viewBox="0 0 1024 1024" version="1.1" xmlns="http://www.w3.org/2000/svg" p-id="15198" xmlns:xlink="http://www.w3.org/1999/xlink" width="200" height="200"><path d="M983.95349 197.121462h-157.232521V39.888941l52.41084 52.410841L971.234706 0.196885l52.41084 52.41084-92.102896 92.102897 52.41084 52.41084zM669.449072 708.786719H354.432752a39.37704 39.37704 0 0 1-39.37704-39.37704V354.39336a39.37704 39.37704 0 0 1 39.37704-39.37704h315.01632a39.37704 39.37704 0 0 1 39.37704 39.37704v315.016319a39.37704 39.37704 0 0 1-39.37704 39.37704z m-39.37704-315.016319h-236.26224v236.262239h236.26224v-236.262239zM52.647118 1023.606154L0.236277 971.195314l92.102897-92.102897-52.41084-52.41084h157.23252v157.232521l-52.41084-52.410841-92.102896 92.102897z m39.692056-878.895532L0.236277 52.607725 52.647118 0.196885l92.102896 92.102897 52.41084-52.410841v157.232521H39.928334l52.41084-52.41084z m839.203476 734.381795l92.102896 92.102897-52.41084 52.41084-92.102897-92.102897-52.41084 52.410841v-157.232521h157.232521l-52.41084 52.41084z" fill="#63CEFF" p-id="15199"></path></svg>