<?xml version="1.0" standalone="no"?><!DOCTYPE svg PUBLIC "-//W3C//DTD SVG 1.1//EN" "http://www.w3.org/Graphics/SVG/1.1/DTD/svg11.dtd"><svg t="1686897429112" class="icon" viewBox="0 0 1211 1024" version="1.1" xmlns="http://www.w3.org/2000/svg" p-id="1606" xmlns:xlink="http://www.w3.org/1999/xlink" width="236.5234375" height="200"><path d="M836.795521 399.7339l80.501519 2.775914 179.879256 0.888293c20.730529 0.155451 35.087559 9.771219 43.082192 28.86951 8.361054 20.142035 10.692822 44.603393 6.995304 73.395178a730.975997 730.975997 0 0 0-149.455233-5.107683l-404.839362-3.22006a241.004892 241.004892 0 0 0-8.77189-74.505544c9.693493-11.547804 12.436097-24.428047 8.216707-38.640729l2.109695-296.245589a5.773902 5.773902 0 0 0-5.773902-5.773902l-160.003708-0.777256h-24.98323l-185.986268-2.775914c-58.516276-40.972497-20.43073-78.947007 30.979206-78.613897 111.480724 0.666219 222.850411 0.777256 334.109062 0.333109 50.743716-0.222073 93.825908 35.864815 39.529021 77.947678a11.092554 11.092554 0 0 0-4.5525 8.77189l1.332439 308.570649c0 3.131231 2.487219 5.70728 5.662866 5.884938 70.919062 3.331097 141.571636 2.742603 211.968826-1.776585z" fill="#73A837" p-id="1607"></path><path d="M217.766601 78.616118l185.986268 2.775914 2.775914 359.980585c-75.949019-24.794468-154.374154-27.459346-235.286508-7.994634 5.185408-119.919504 20.686114-238.173459 46.524326-354.761865z" fill="#E2F0FA" p-id="1608"></path><path d="M403.752869 81.392032h24.98323c2.664878 40.639387 3.55317 81.278775 2.664878 121.918162-1.776585 79.391153 3.442134 162.446513-2.664878 243.614251l-22.207316-5.551828-2.775914-359.980585z" fill="#476076" p-id="1609"></path><path d="M428.736099 81.392032l160.003708 0.777256a5.773902 5.773902 0 0 1 5.773902 5.773902l-2.109695 296.245589-61.95841-76.282129c-2.009762-2.465012-2.109695-6.240256-0.222073-9.438109 4.663536-7.883597 41.971826-52.631338 11.880914-51.632008-3.264475 0.066622-6.684402 1.798793-9.43811 4.774572a531.29892 531.29892 0 0 0-68.509568 93.159689 5.12989 5.12989 0 0 0-0.466354 4.174975 4.663536 4.663536 0 0 0 2.798122 2.931366c17.543779 6.817646 29.313656 0.599598 35.309632-18.654145 2.664878-8.660853 6.806542-9.327073 12.436097-1.998658l69.953043 91.605176c6.806542 24.361425 9.737908 49.189204 8.77189 74.505544 0.777256 19.653474 4.441463 65.178471-19.875547 64.290178a712.699377 712.699377 0 0 0-144.347551-114.700785c6.107012-81.167738 0.888293-164.223098 2.664878-243.614251 0.888293-40.639387 0-81.278775-2.664878-121.918162z" fill="#E2F0FA" p-id="1610"></path><path d="M917.29704 402.509814l-80.501519-2.775914 0.111037-210.081205c0-3.575378 1.265817-6.995304 3.55317-9.660182a297.333747 297.333747 0 0 1 63.401886-55.074143 8.838512 8.838512 0 0 1 9.438109-0.222073c15.689468 9.626871 28.980547 22.540425 39.862132 38.751766 4.297116 6.462329 3.109024 15.589535-2.886951 22.096279l-32.977864 35.753778c-2.06528 2.27625-3.18675 5.929353-3.109024 10.104328l3.109024 171.107366zM592.404014 384.188779c4.21939 14.212682 1.476786 27.092925-8.216707 38.640729l-69.953043-91.605176c-5.629554-7.328414-9.771219-6.662195-12.436097 1.998658-5.995975 19.253743-17.765852 25.471791-35.309632 18.654145a4.663536 4.663536 0 0 1-2.798122-2.931366 5.12989 5.12989 0 0 1 0.466354-4.174975 531.29892 531.29892 0 0 1 68.509568-93.159689c2.753707-2.97578 6.173634-4.707951 9.43811-4.774572 30.090913-0.999329-7.217378 43.748412-11.880914 51.632008-1.887622 3.197853-1.787689 6.973097 0.222073 9.438109l61.95841 76.282129z" fill="#4F687D" p-id="1611"></path><path d="M406.528783 441.372617l22.207316 5.551828a712.699377 712.699377 0 0 1 144.347551 114.700785c35.831504 67.810038 56.217819 139.095521 61.181154 213.856448a16.87756 16.87756 0 0 1-13.990609 17.765853c-21.618822 3.708622-42.22721 2.043073-61.847374-4.996646a8.327743 8.327743 0 0 1-5.440792-7.550487c-8.549816-211.191571-198.311328-322.117112-396.289545-250.498519-56.70638 20.364108-100.710176 56.262234-132.022491 107.70548-2.043073 3.397719-4.952231 5.696176-7.994633 6.329085-24.65012 5.329756-15.323048-79.16908-13.102317-96.490786 0.433043-3.597585 2.031969-6.961993 4.5525-9.549146 47.44593-48.334222 101.820542-83.277433 163.112732-104.818529 80.912354-19.464712 159.337489-16.799834 235.286508 7.994634z" fill="#73A837" p-id="1612"></path><path d="M592.959197 497.335052l404.839362 3.22006 0.444146 38.418656v49.96646l0.222073 31.645425c-8.549816 43.415302 12.99128 40.195241 46.302253 40.639387 29.091583 0.299799 58.149856-0.111037 87.163714-1.221402 2.997988-0.066622 5.91825-2.165213 7.550487-5.440793l7.77256-15.656157-2.775914 91.605177c-108.926883-68.287495-231.400228-7.217378-255.384129 116.588406h-373.860156c53.85274-220.962789-137.57432-382.632046-349.76522-310.902417l-8.771889-5.995975c197.978218-71.618593 387.739729 39.306948 396.289545 250.498519a8.327743 8.327743 0 0 0 5.440792 7.550487c19.620163 7.039719 40.228552 8.705268 61.847374 4.996646a16.87756 16.87756 0 0 0 13.990609-17.765853c-4.963335-74.760928-25.349651-146.04641-61.181154-213.856448 24.31701 0.888293 20.652803-44.636704 19.875547-64.290178z m216.07718 42.082863h-24.98323c-16.355688-2.442805-31.645425 0-45.858106 7.328414-3.55317 1.776585-5.873835 4.852298-5.995976 7.994633l-3.22006 64.734325v27.759144l-0.33311 54.296887c-0.077726 16.588865 8.294432 24.916608 25.094266 24.98323l151.898039 0.444146c14.878901 0.077726 22.318352-7.250689 22.318352-21.985242v-82.722251c1.554512-34.754449 12.102987-96.712859-49.522314-82.833286-9.47142-4.21939-18.731871-4.21939-27.759144 0h-41.638717z" fill="#9CCC65" p-id="1613"></path><path d="M1147.253792 505.662795l0.111037 34.199266-149.122124-0.888293-0.444146-38.418656a730.975997 730.975997 0 0 1 149.455233 5.107683zM515.233593 847.100271c-58.40524 139.572978-195.979559 217.076509-341.992659 155.007062-211.413644-89.939628-194.314011-358.759182-7.772561-465.909479 212.1909-71.729629 403.617959 89.939628 349.76522 310.902417z m-93.714872-75.949019c0-82.666732-67.010575-149.677307-149.677306-149.677307s-149.677307 67.010575-149.677307 149.677307a149.677307 149.677307 0 0 0 149.677307 149.677306c82.666732 0 149.677307-67.010575 149.677306-149.677306z" fill="#4F687D" p-id="1614"></path><path d="M1147.364829 539.862061l0.777256 7.439451c-9.882255 29.424693-119.697431 19.764511-149.89938 22.207315v-30.535059l149.122124 0.888293z" fill="#2E3D4E" p-id="1615"></path><path d="M1148.142085 547.301512l-0.888293 91.605176-7.77256 15.656157c-1.632238 3.275579-4.5525 5.37417-7.550487 5.440793-29.013858 1.110366-58.07213 1.521201-87.163714 1.221402-33.310973-0.444146-54.852069 2.775914-46.302253-40.639387l130.245906-1.443476c3.775244-0.066622 7.017512-1.821 8.43878-4.552499 9.915566-19.464712 0.366421-27.015199-28.647437-22.651462-17.24398 2.598256-53.997088 1.598927-110.259322-2.997988v-19.431401c30.201949-2.442805 140.017124 7.217378 149.89938-22.207315z" fill="#4F687D" p-id="1616"></path><path d="M998.242705 588.940228c56.262234 4.596914 93.015341 5.596244 110.259322 2.997988 29.013858-4.363737 38.563003 3.18675 28.647437 22.651462-1.421268 2.7315-4.663536 4.485878-8.43878 4.552499l-130.245906 1.443476-0.222073-31.645425z" fill="#2E3D4E" p-id="1617"></path><path d="M1144.477878 730.511865c75.2828 61.181154 92.382433 171.995659 23.428718 242.392848-110.259322 112.702126-283.698456 24.761157-278.812847-125.804442 23.983901-123.805784 146.457246-184.875902 255.384129-116.588406z m-0.111037 132.244563a93.492798 93.492798 0 1 0-186.985596 0 93.492798 93.492798 0 0 0 186.985596 0zM850.675094 539.417915l-2.886951 73.839324c-0.177659 3.331097-2.509427 5.962664-5.329756 5.995975h-27.426035c-3.131231 0-5.662865-2.687085-5.662865-5.995975l-0.33311-73.839324h41.638717z" fill="#4F687D" p-id="1618"></path><path d="M878.434238 539.417915a233.687581 233.687581 0 0 0-0.888293 74.61658c0.521872 3.442134 3.231164 5.995975 6.440122 6.107011l43.970485 2.109695v19.431401l-2.886951 2.442805a10.326402 10.326402 0 0 1-6.662195 2.442805l-189.428401 0.666219v-27.759144l47.412618-1.887622a5.82942 5.82942 0 0 0 5.662866-5.662865l1.998658-72.506885h24.98323l0.33311 73.839324c0 3.30889 2.531634 5.995975 5.662865 5.995975h27.426035c2.820329-0.033311 5.152097-2.664878 5.329756-5.995975l2.886951-73.839324c9.027274-4.21939 18.287724-4.21939 27.759144 0z" fill="#2E3D4E" p-id="1619"></path><path d="M784.053147 539.417915l-1.998658 72.506885a5.82942 5.82942 0 0 1-5.662866 5.662865l-47.412618 1.887622 3.22006-64.734325c0.12214-3.142335 2.442805-6.218048 5.995976-7.994633 14.212682-7.328414 29.502419-9.771219 45.858106-7.328414zM878.434238 539.417915c61.625301-13.879572 51.076826 48.078838 49.522314 82.833286l-43.970485-2.109695c-3.208957-0.111037-5.91825-2.664878-6.440122-6.107011-3.697518-24.872193-3.408823-49.744387 0.888293-74.61658z" fill="#4F687D" p-id="1620"></path><path d="M421.518721 771.151252c0 82.666732-67.010575 149.677307-149.677306 149.677306s-149.677307-67.010575-149.677307-149.677306a149.677307 149.677307 0 0 1 149.677307-149.677307c82.666732 0 149.677307 67.010575 149.677306 149.677307z m-86.497494-0.111037a63.290849 63.290849 0 1 0-126.581698 0 63.290849 63.290849 0 0 0 126.581698 0z" fill="#E2F0FA" p-id="1621"></path><path d="M927.956552 641.682602v63.29085c0 14.734554-7.439451 22.062968-22.318352 21.985242l-151.898039-0.444146c-16.799834-0.066622-25.171992-8.394365-25.094266-24.98323l0.33311-54.296887 189.428401-0.666219a10.326402 10.326402 0 0 0 6.662195-2.442805l2.886951-2.442805z" fill="#4F687D" p-id="1622"></path><path d="M1144.366841 862.756428a93.492798 93.492798 0 1 1-186.985596 0 93.492798 93.492798 0 0 1 186.985596 0z m-54.741032-0.111036a38.973839 38.973839 0 1 0-77.947678 0 38.973839 38.973839 0 0 0 77.947678 0z" fill="#E2F0FA" p-id="1623"></path><path d="M271.730378 771.040215m-63.290849 0a63.290849 63.290849 0 1 0 126.581698 0 63.290849 63.290849 0 1 0-126.581698 0Z" fill="#4F687D" p-id="1624"></path><path d="M1050.65197 862.645392m-38.973839 0a38.973839 38.973839 0 1 0 77.947678 0 38.973839 38.973839 0 1 0-77.947678 0Z" fill="#4F687D" p-id="1625"></path></svg>